<svg id="Flat" height="512" viewBox="0 0 512 512" width="512" xmlns="http://www.w3.org/2000/svg"><path d="m392 232-32 256h-176l-32-256z" fill="#3ea7ff"/><g fill="#2b7cd4"><path d="m240 256h16v16h-16z"/><path d="m272 256h32v16h-32z"/><path d="m389 256-2 16h-67v-16z"/><path d="m240 448h16v16h-16z"/><path d="m272 448h32v16h-32z"/><path d="m363 464h-43v-16h45z"/><path d="m208 288h16v144h-16z"/><path d="m264 288h16v144h-16z"/><path d="m320 288h16v144h-16z"/></g><path d="m99.549 105.373h248.902v45.255h-248.902z" fill="#3ea7ff" transform="matrix(.707 -.707 .707 .707 -24.902 195.882)"/><path d="m160 188.686h16v22.627h-16z" fill="#2b7cd4" transform="matrix(.707 -.707 .707 .707 -92.215 177.373)"/><path d="m192 156.686h16v22.627h-16z" fill="#2b7cd4" transform="matrix(.707 -.707 .707 .707 -60.215 190.628)"/><path d="m224 124.686h16v22.627h-16z" fill="#2b7cd4" transform="matrix(.707 -.707 .707 .707 -28.215 203.882)"/><path d="m256 92.686h16v22.627h-16z" fill="#2b7cd4" transform="matrix(.707 -.707 .707 .707 3.785 217.137)"/><path d="m288 60.686h16v22.627h-16z" fill="#2b7cd4" transform="matrix(.707 -.707 .707 .707 35.785 230.392)"/><path d="m248 72-48-48-80 80 48 48 24-24-24-24 32-32 24 24z" fill="#87c9ff"/></svg>