<?xml version="1.0"?>
<svg xmlns="http://www.w3.org/2000/svg" height="512px" viewBox="0 0 480 480.07153" width="512px" class=""><g><path d="m288.035156 144.070312c.035156-66.355468-45.285156-124.144531-109.738281-139.933593-64.453125-15.789063-131.347656 14.511719-161.988281 73.371093-30.644532 58.859376-17.09375 131.039063 32.808594 174.78125-.679688 1.144532-1.050782 2.449219-1.082032 3.78125v64c.027344 22.082032 17.921875 39.976563 40 40h.640625c3.566407 24.527344 22.832031 43.796876 47.359375 47.359376v32.640624c0 13.257813-10.746094 24-24 24s-24-10.742187-24-24v-20c-.019531-19.871093-16.125-35.976562-36-36-19.855468.066407-35.933594 16.144532-36 36v52c0 4.417969 3.582032 8 8 8 4.417969 0 8-3.582031 8-8v-52c.070313-11.015624 8.984375-19.929687 20-20 11.046875 0 20 8.957032 20 20v20c0 22.09375 17.910156 40 40 40 22.09375 0 40-17.90625 40-40v-32.640624c24.527344-3.5625 43.792969-22.832032 47.359375-47.359376h.640625c22.082032-.023437 39.972656-17.917968 40-40v-64c-.027344-1.332031-.398437-2.636718-1.078125-3.78125 31.171875-27.328124 49.058594-66.761718 49.078125-108.21875zm-272 0c-.042968-60.558593 42.367188-112.863281 101.628906-125.339843 59.261719-12.480469 119.15625 18.285156 143.539063 73.71875 24.382813 55.4375 6.578125 120.375-42.671875 155.621093h-66.496094v-56.71875c24.605469-4.160156 41.917969-26.476562 39.832032-51.34375-2.085938-24.863281-22.878907-43.984374-47.832032-43.984374s-45.746094 19.121093-47.832031 43.984374c-2.085937 24.867188 15.226563 47.183594 39.832031 51.34375v56.71875h-66.496094c-33.546874-24.023437-53.464843-62.738281-53.503906-104zm208 120v16h-160v-16zm-160 32h160v16h-160zm80-120c-17.671875 0-32-14.324218-32-32 0-17.671874 14.328125-32 32-32s32 14.328126 32 32c0 17.675782-14.328125 32-32 32zm0 216c-19-.023437-35.371094-13.386718-39.199218-32h78.398437c-3.824219 18.613282-20.199219 31.976563-39.199219 32zm56-48h-112c-10.167968-.011718-19.230468-6.417968-22.632812-16h157.265625c-3.402344 9.582032-12.464844 15.988282-22.632813 16zm0 0" data-original="#000000" class="active-path" data-old_color="#000000" fill="#FFFFFF"/><path d="m344.035156 16.070312c66.242188.074219 119.925782 53.757813 120 120 0 4.417969 3.582032 8 8 8 4.417969 0 8-3.582031 8-8-.082031-75.074218-60.921875-135.914062-136-135.9999995-4.417968 0-8 3.5820315-8 7.9999995 0 4.417969 3.582032 8 8 8zm0 0" data-original="#000000" class="active-path" data-old_color="#000000" fill="#FFFFFF"/><path d="m344.035156 48.070312c48.578125.058594 87.941406 39.425782 88 88 0 4.417969 3.582032 8 8 8 4.417969 0 8-3.582031 8-8-.066406-57.410156-46.589844-103.933593-104-104-4.417968 0-8 3.582032-8 8 0 4.417969 3.582032 8 8 8zm0 0" data-original="#000000" class="active-path" data-old_color="#000000" fill="#FFFFFF"/><path d="m344.035156 80.070312c30.914063.035157 55.964844 25.089844 56 56 0 4.417969 3.582032 8 8 8 4.417969 0 8-3.582031 8-8-.042968-39.746093-32.253906-71.953124-72-72-4.417968 0-8 3.582032-8 8 0 4.417969 3.582032 8 8 8zm0 0" data-original="#000000" class="active-path" data-old_color="#000000" fill="#FFFFFF"/><path d="m343.066406 103.105469c-6.238281 6.023437-8.738281 14.945312-6.542968 23.339843 2.195312 8.390626 8.75 14.941407 17.140624 17.140626 8.390626 2.195312 17.3125-.308594 23.339844-6.546876 9.367188-9.371093 9.367188-24.5625 0-33.933593-9.5-9.0625-24.4375-9.0625-33.9375 0zm22.625 22.621093c-3.160156 3.035157-8.152344 3.035157-11.3125 0-3.125-3.121093-3.125-8.1875 0-11.3125s8.191406-3.125 11.3125 0c3.125 3.125 3.125 8.191407 0 11.3125zm0 0" data-original="#000000" class="active-path" data-old_color="#000000" fill="#FFFFFF"/><path d="m422.050781 178.808594c-1.554687-1.660156-3.726562-2.601563-6-2.601563-2.273437 0-4.445312.941407-6 2.601563l-56 64c-2.058593 2.355468-2.554687 5.699218-1.265625 8.554687 1.285156 2.851563 4.121094 4.691407 7.25 4.707031h24v152c0 4.417969 3.582032 8 8 8h48c4.417969 0 8-3.582031 8-8v-152h24c3.136719-.003906 5.984375-1.835937 7.277344-4.695312 1.296875-2.855469.804688-6.207031-1.261719-8.566406zm17.984375 61.261718c-4.417968 0-8 3.582032-8 8v152h-32v-152c0-4.417968-3.582031-8-8-8h-14.398437l38.398437-43.847656 38.402344 43.847656zm0 0" data-original="#000000" class="active-path" data-old_color="#000000" fill="#FFFFFF"/><path d="m368.035156 400.070312h-24v-152c0-4.417968-3.582031-8-8-8h-48c-4.417968 0-8 3.582032-8 8v152h-24c-3.136718.003907-5.980468 1.839844-7.277344 4.695313-1.296874 2.859375-.800781 6.207031 1.261719 8.570313l56 64c1.519531 1.722656 3.703125 2.707031 6 2.707031s4.480469-.984375 6-2.707031l56-64c2.058594-2.359376 2.554688-5.699219 1.269531-8.554688-1.289062-2.851562-4.121093-4.695312-7.253906-4.710938zm-56 59.847657-38.398437-43.847657h14.398437c4.417969 0 8-3.582031 8-8v-152h32v152c0 4.417969 3.582032 8 8 8h14.402344zm0 0" data-original="#000000" class="active-path" data-old_color="#000000" fill="#FFFFFF"/><path d="m144.035156 88.070312c4.417969 0 8-3.582031 8-8v-16c0-4.417968-3.582031-8-8-8-4.417968 0-8 3.582032-8 8v16c0 4.417969 3.582032 8 8 8zm0 0" data-original="#000000" class="active-path" data-old_color="#000000" fill="#FFFFFF"/><path d="m189.292969 106.816406c2.121093 0 4.15625-.84375 5.65625-2.34375l11.308593-11.3125c3.035157-3.140625 2.992188-8.128906-.09375-11.214844-3.085937-3.085937-8.078124-3.128906-11.214843-.097656l-11.3125 11.3125c-2.289063 2.289063-2.972657 5.726563-1.734375 8.714844 1.238281 2.992188 4.152344 4.941406 7.390625 4.941406zm0 0" data-original="#000000" class="active-path" data-old_color="#000000" fill="#FFFFFF"/><path d="m200.035156 144.070312c0 4.417969 3.582032 8 8 8h16c4.417969 0 8-3.582031 8-8 0-4.417968-3.582031-8-8-8h-16c-4.417968 0-8 3.582032-8 8zm0 0" data-original="#000000" class="active-path" data-old_color="#000000" fill="#FFFFFF"/><path d="m194.949219 183.671875c-3.140625-3.03125-8.128907-2.988281-11.214844.097656-3.085937 3.085938-3.128906 8.074219-.097656 11.214844l11.3125 11.3125c3.136719 3.03125 8.128906 2.988281 11.214843-.097656 3.085938-3.085938 3.128907-8.078125.09375-11.214844zm0 0" data-original="#000000" class="active-path" data-old_color="#000000" fill="#FFFFFF"/><path d="m81.8125 194.984375c-2.082031 2.007813-2.914062 4.980469-2.183594 7.777344.734375 2.800781 2.917969 4.984375 5.714844 5.714843 2.796875.734376 5.769531-.101562 7.78125-2.179687l11.3125-11.3125c3.03125-3.140625 2.988281-8.128906-.097656-11.214844-3.085938-3.085937-8.078125-3.128906-11.214844-.097656zm0 0" data-original="#000000" class="active-path" data-old_color="#000000" fill="#FFFFFF"/><path d="m64.035156 152.070312h16c4.417969 0 8-3.582031 8-8 0-4.417968-3.582031-8-8-8h-16c-4.417968 0-8 3.582032-8 8 0 4.417969 3.582032 8 8 8zm0 0" data-original="#000000" class="active-path" data-old_color="#000000" fill="#FFFFFF"/><path d="m93.125 104.472656c3.136719 3.03125 8.128906 2.988282 11.214844-.097656 3.085937-3.085938 3.128906-8.078125.097656-11.214844l-11.3125-11.3125c-2.011719-2.078125-4.984375-2.914062-7.78125-2.183594-2.796875.734376-4.980469 2.917969-5.714844 5.714844-.730468 2.796875.101563 5.773438 2.183594 7.78125zm0 0" data-original="#000000" class="active-path" data-old_color="#000000" fill="#FFFFFF"/></g> </svg>
