<svg height="512pt" viewBox="0 -51 512 511" width="512pt" xmlns="http://www.w3.org/2000/svg"><path d="m477.6875 79.210938v307.910156h-443.367188v-307.910156c0-25.367188 20.5625-45.941407 45.933594-45.941407h351.492188c25.378906 0 45.941406 20.574219 45.941406 45.941407zm0 0" fill="#4c5072"/><path d="m445.527344 93.507812v217.523438c0 11.765625-9.539063 21.296875-21.304688 21.296875h-336.445312c-11.765625 0-21.304688-9.53125-21.304688-21.296875v-217.523438c0-11.765624 9.539063-21.308593 21.304688-21.308593h336.445312c11.765625 0 21.304688 9.542969 21.304688 21.308593zm0 0" fill="#bce8f1"/><path d="m424.222656 340.164062h-336.445312c-16.070313 0-29.144532-13.070312-29.144532-29.132812v-217.523438c0-16.070312 13.074219-29.144531 29.144532-29.144531h336.445312c16.066406 0 29.140625 13.074219 29.140625 29.144531v217.523438c0 16.0625-13.074219 29.132812-29.140625 29.132812zm-336.445312-260.125c-7.425782 0-13.46875 6.039063-13.46875 13.46875v217.523438c0 7.421875 6.042968 13.457031 13.46875 13.457031h336.445312c7.425782 0 13.46875-6.035156 13.46875-13.457031v-217.523438c0-7.429687-6.042968-13.46875-13.46875-13.46875zm0 0" fill="#353a59"/><path d="m34.320312 344.617188h443.367188v42.503906h-443.367188zm0 0" fill="#353a59"/><path d="m500.421875 363.773438h-488.84375c-6.394531 0-11.57421875 5.179687-11.57421875 11.574218 0 19.390625 15.71874975 35.109375 35.10937475 35.109375h441.777344c19.390625 0 35.109375-15.71875 35.109375-35.109375 0-6.394531-5.183594-11.574218-11.578125-11.574218zm0 0" fill="#4c5072"/><path d="m278.089844 387.113281h-44.179688c-12.890625 0-23.34375-10.449219-23.34375-23.339843h90.867188c0 12.890624-10.449219 23.339843-23.34375 23.339843zm0 0" fill="#353a59"/><path d="m404.136719 148.636719c0 81.816406-66.324219 148.140625-148.136719 148.140625-81.816406 0-148.140625-66.324219-148.140625-148.140625 0-81.8125 66.324219-148.136719 148.140625-148.136719 81.8125 0 148.136719 66.324219 148.136719 148.136719zm0 0" fill="#ff435e"/><path d="m275.460938 295.503906c-6.375.847656-12.871094 1.277344-19.464844 1.277344-81.816406 0-148.136719-66.332031-148.136719-148.148438 0-81.8125 66.320313-148.132812 148.136719-148.132812 6.59375 0 13.089844.429688 19.464844 1.273438-72.621094 9.519531-128.6875 71.640624-128.6875 146.859374 0 75.222657 56.066406 137.351563 128.6875 146.871094zm0 0" fill="#e51c42"/><path d="m336.101562 190.230469-41.59375-41.59375 41.59375-41.589844-38.511718-38.511719-41.589844 41.59375-41.59375-41.59375-38.511719 38.511719 41.59375 41.589844-41.59375 41.59375 38.511719 38.511719 41.59375-41.59375 41.589844 41.59375zm0 0" fill="#fff"/><g fill="#353a59"><path d="m96.59375 33.269531c-25.367188 0-45.933594 20.574219-45.933594 45.941407v307.910156h-16.339844v-307.910156c0-25.367188 20.5625-45.941407 45.933594-45.941407zm0 0"/><path d="m93.476562 410.457031h-58.367187c-9.699219 0-18.476563-3.929687-24.828125-10.28125-6.351562-6.351562-10.28125-15.128906-10.28125-24.828125 0-6.394531 5.183594-11.574218 11.578125-11.574218h58.367187c-6.394531 0-11.578124 5.179687-11.578124 11.574218 0 9.699219 3.929687 18.476563 10.28125 24.828125 6.355468 6.351563 15.132812 10.28125 24.828124 10.28125zm0 0"/></g></svg>