<svg height="512pt" viewBox="-44 0 512 512" width="512pt" xmlns="http://www.w3.org/2000/svg"><path d="m143.902344 504.507812h-128.042969c-4.621094 0-8.367187-3.746093-8.367187-8.367187v-480.28125c0-4.621094 3.746093-8.367187 8.367187-8.367187h128.042969zm0 0" fill="#ff5757"/><path d="m116.941406 7.492188h26.960938v497.015624h-26.960938zm0 0" fill="#ff4343"/><path d="m111.414062 315.972656h-71.429687c-2.757813 0-4.996094-2.234375-4.996094-4.996094v-257.59375c0-2.757812 2.238281-4.996093 4.996094-4.996093h71.429687c2.757813 0 4.996094 2.238281 4.996094 4.996093v257.59375c0 2.761719-2.238281 4.996094-4.996094 4.996094zm0 0" fill="#ffcd6b"/><path d="m111.414062 315.972656h-16.183593v-267.585937h16.183593c2.757813 0 4.996094 2.238281 4.996094 4.996093v257.59375c0 2.761719-2.238281 4.996094-4.996094 4.996094zm0 0" fill="#ffc143"/><path d="m116.410156 87.808594h-81.421875v-34.425782c0-2.757812 2.238281-4.996093 4.996094-4.996093h71.429687c2.757813 0 4.996094 2.238281 4.996094 4.996093zm0 0" fill="#e7e7e7"/><path d="m111.414062 315.972656h-71.429687c-2.757813 0-4.996094-2.234375-4.996094-4.996094v-34.421874h81.417969v34.421874c.003906 2.761719-2.234375 4.996094-4.992188 4.996094zm0 0" fill="#e7e7e7"/><path d="m116.410156 87.808594h-21.179687v-39.421875h16.183593c2.757813 0 4.996094 2.238281 4.996094 4.996093zm0 0" fill="#cecece"/><path d="m111.414062 315.972656h-16.183593v-39.417968h21.179687v34.421874c0 2.761719-2.238281 4.996094-4.996094 4.996094zm0 0" fill="#cecece"/><path d="m112.101562 422.308594c0 20.105468-16.296874 36.402344-36.402343 36.402344s-36.402344-16.296876-36.402344-36.402344c0-20.101563 16.296875-36.402344 36.402344-36.402344s36.402343 16.300781 36.402343 36.402344zm0 0" fill="#838383"/><path d="m112.105469 422.308594c0 20.101562-16.304688 36.398437-36.410157 36.398437-16.304687 0-30.101562-10.71875-34.742187-25.496093 5.546875 3.425781 12.09375 5.402343 19.097656 5.402343 20.101563 0 36.398438-16.304687 36.398438-36.40625 0-3.796875-.582031-7.453125-1.660157-10.890625 10.390626 6.402344 17.316407 17.894532 17.316407 30.992188zm0 0" fill="#5a5a5a"/><path d="m143.953125 7.492188h136.410156v497.015624h-136.410156zm0 0" fill="#00d3b4"/><path d="m253.402344 7.492188h26.960937v497.015624h-26.960937zm0 0" fill="#00b7a0"/><path d="m247.875 315.972656h-71.429688c-2.757812 0-4.996093-2.234375-4.996093-4.996094v-257.59375c0-2.757812 2.238281-4.996093 4.996093-4.996093h71.429688c2.757812 0 4.996094 2.238281 4.996094 4.996093v257.59375c-.003906 2.761719-2.238282 4.996094-4.996094 4.996094zm0 0" fill="#ffcd6b"/><path d="m247.875 315.972656h-16.183594v-267.585937h16.183594c2.757812 0 4.996094 2.238281 4.996094 4.996093v257.59375c-.003906 2.761719-2.238282 4.996094-4.996094 4.996094zm0 0" fill="#ffc143"/><path d="m252.867188 87.808594h-81.417969v-34.425782c0-2.757812 2.238281-4.996093 4.996093-4.996093h71.429688c2.757812 0 4.996094 2.238281 4.996094 4.996093v34.425782zm0 0" fill="#e7e7e7"/><path d="m247.875 315.972656h-71.429688c-2.757812 0-4.996093-2.234375-4.996093-4.996094v-34.421874h81.417969v34.421874c0 2.761719-2.234376 4.996094-4.992188 4.996094zm0 0" fill="#e7e7e7"/><path d="m252.867188 87.808594h-21.175782v-39.421875h16.179688c2.761718 0 4.996094 2.238281 4.996094 4.996093zm0 0" fill="#cecece"/><path d="m247.875 315.972656h-16.183594v-39.417968h21.179688v34.421874c-.003906 2.761719-2.238282 4.996094-4.996094 4.996094zm0 0" fill="#cecece"/><path d="m248.5625 422.308594c0 20.105468-16.300781 36.402344-36.402344 36.402344-20.105468 0-36.402344-16.296876-36.402344-36.402344 0-20.101563 16.296876-36.402344 36.402344-36.402344 20.101563 0 36.402344 16.300781 36.402344 36.402344zm0 0" fill="#838383"/><path d="m248.566406 422.308594c0 20.101562-16.304687 36.398437-36.410156 36.398437-16.304688 0-30.101562-10.71875-34.742188-25.496093 5.546876 3.425781 12.09375 5.402343 19.097657 5.402343 20.101562 0 36.398437-16.304687 36.398437-36.40625 0-3.796875-.582031-7.453125-1.660156-10.890625 10.390625 6.402344 17.316406 17.894532 17.316406 30.992188zm0 0" fill="#5a5a5a"/><path d="m408.238281 504.507812h-128.042969v-497.015624h128.042969c4.621094 0 8.367188 3.746093 8.367188 8.367187v480.28125c0 4.621094-3.746094 8.367187-8.367188 8.367187zm0 0" fill="#00d1fc"/><path d="m408.238281 504.507812h-18.59375v-497.015624h18.59375c4.621094 0 8.367188 3.746093 8.367188 8.367187v480.28125c0 4.621094-3.746094 8.367187-8.367188 8.367187zm0 0" fill="#00c1fb"/><path d="m384.117188 315.972656h-71.429688c-2.757812 0-4.996094-2.234375-4.996094-4.996094v-257.59375c0-2.757812 2.238282-4.996093 4.996094-4.996093h71.429688c2.757812 0 4.996093 2.238281 4.996093 4.996093v257.59375c-.003906 2.761719-2.238281 4.996094-4.996093 4.996094zm0 0" fill="#ffcd6b"/><path d="m384.117188 315.972656h-16.183594v-267.585937h16.183594c2.757812 0 4.996093 2.238281 4.996093 4.996093v257.59375c-.003906 2.761719-2.238281 4.996094-4.996093 4.996094zm0 0" fill="#ffc143"/><path d="m389.109375 87.808594h-81.417969v-34.425782c0-2.757812 2.238282-4.996093 4.996094-4.996093h71.429688c2.757812 0 4.996093 2.238281 4.996093 4.996093v34.425782zm0 0" fill="#e7e7e7"/><path d="m384.117188 315.972656h-71.429688c-2.757812 0-4.996094-2.234375-4.996094-4.996094v-34.421874h81.417969v34.421874c0 2.761719-2.234375 4.996094-4.992187 4.996094zm0 0" fill="#e7e7e7"/><path d="m389.109375 87.808594h-21.175781v-39.421875h16.179687c2.761719 0 4.996094 2.238281 4.996094 4.996093zm0 0" fill="#cecece"/><path d="m384.117188 315.972656h-16.183594v-39.417968h21.179687v34.421874c-.003906 2.761719-2.238281 4.996094-4.996093 4.996094zm0 0" fill="#cecece"/><path d="m384.804688 422.308594c0 20.105468-16.300782 36.402344-36.402344 36.402344-20.105469 0-36.402344-16.296876-36.402344-36.402344 0-20.101563 16.296875-36.402344 36.402344-36.402344 20.101562 0 36.402344 16.300781 36.402344 36.402344zm0 0" fill="#838383"/><path d="m384.808594 422.308594c0 20.101562-16.308594 36.398437-36.410156 36.398437-16.304688 0-30.105469-10.71875-34.742188-25.496093 5.546875 3.425781 12.089844 5.402343 19.09375 5.402343 20.105469 0 36.398438-16.304687 36.398438-36.40625 0-3.796875-.578126-7.453125-1.65625-10.890625 10.390624 6.402344 17.316406 17.894532 17.316406 30.992188zm0 0" fill="#5a5a5a"/><path d="m75.699219 378.414062c-24.203125 0-43.894531 19.691407-43.894531 43.894532s19.691406 43.894531 43.894531 43.894531 43.894531-19.691406 43.894531-43.894531-19.691406-43.894532-43.894531-43.894532zm0 72.804688c-15.941407 0-28.910157-12.96875-28.910157-28.910156s12.96875-28.90625 28.910157-28.90625c15.941406 0 28.90625 12.964844 28.90625 28.90625s-12.964844 28.910156-28.90625 28.910156zm0 0"/><path d="m212.160156 378.414062c-24.207031 0-43.894531 19.691407-43.894531 43.894532s19.6875 43.894531 43.894531 43.894531c24.203125 0 43.894532-19.691406 43.894532-43.894531s-19.691407-43.894532-43.894532-43.894532zm0 72.804688c-15.941406 0-28.910156-12.96875-28.910156-28.910156s12.96875-28.90625 28.910156-28.90625c15.9375 0 28.90625 12.964844 28.90625 28.90625s-12.96875 28.910156-28.90625 28.910156zm0 0"/><path d="m39.984375 323.46875h71.429687c6.886719 0 12.488282-5.605469 12.488282-12.488281v-257.597657c0-6.886718-5.601563-12.488281-12.488282-12.488281h-71.429687c-6.886719 0-12.488281 5.601563-12.488281 12.488281v257.59375c0 6.886719 5.601562 12.492188 12.488281 12.492188zm2.496094-267.585938h66.433593v24.429688h-66.433593zm0 39.417969h66.433593v173.761719h-66.433593zm0 188.746094h66.433593v24.433594h-66.433593zm0 0"/><path d="m176.445312 323.46875h71.429688c6.886719 0 12.488281-5.605469 12.488281-12.488281v-70.964844c0-4.140625-3.355469-7.496094-7.496093-7.496094-4.136719 0-7.492188 3.355469-7.492188 7.496094v29.046875h-66.433594v-173.761719h66.433594v109.742188c0 4.140625 3.355469 7.496093 7.492188 7.496093 4.140624 0 7.496093-3.355468 7.496093-7.496093v-151.660157c0-6.886718-5.601562-12.488281-12.488281-12.488281h-71.429688c-6.886718 0-12.488281 5.601563-12.488281 12.488281v257.59375c-.003906 6.886719 5.601563 12.492188 12.488281 12.492188zm2.496094-267.585938h66.433594v24.429688h-66.433594zm0 228.164063h66.433594v24.433594h-66.433594zm0 0"/><path d="m396.605469 310.976562v-257.59375c0-6.886718-5.601563-12.488281-12.488281-12.488281h-71.429688c-6.886719 0-12.488281 5.601563-12.488281 12.488281v257.59375c0 6.886719 5.601562 12.492188 12.488281 12.492188h71.429688c6.886718 0 12.488281-5.605469 12.488281-12.492188zm-14.988281-2.496093h-66.433594v-24.433594h66.433594zm0-39.417969h-66.433594v-173.761719h66.433594zm0-188.75h-66.433594v-24.429688h66.433594zm0 0"/><path d="m408.238281 0h-32.328125c-4.136718 0-7.492187 3.355469-7.492187 7.492188 0 4.140624 3.355469 7.496093 7.492187 7.496093h32.328125c.484375 0 .875.390625.875.871094v480.28125c0 .480469-.390625.875-.875.875h-120.378906v-482.027344h53.414063c4.140624 0 7.496093-3.355469 7.496093-7.496093 0-4.136719-3.355469-7.492188-7.496093-7.492188h-197.320313c-.007813 0-.015625 0-.023437 0-.007813 0-.019532 0-.027344 0h-128.042969c-8.746094 0-15.859375 7.113281-15.859375 15.859375v480.28125c0 8.746094 7.113281 15.859375 15.859375 15.859375h128.042969.027344.023437 264.285156c8.746094 0 15.863281-7.113281 15.863281-15.859375v-480.28125c0-8.746094-7.117187-15.859375-15.863281-15.859375zm-271.828125 497.011719h-120.550781c-.480469 0-.871094-.390625-.871094-.871094v-480.28125c0-.480469.390625-.871094.871094-.871094h120.550781zm136.292969 0h-121.253906v-482.023438h121.253906zm0 0"/><path d="m348.402344 378.414062c-24.207032 0-43.894532 19.691407-43.894532 43.894532s19.6875 43.894531 43.894532 43.894531c24.203125 0 43.894531-19.691406 43.894531-43.894531s-19.691406-43.894532-43.894531-43.894532zm0 72.804688c-15.941406 0-28.910156-12.96875-28.910156-28.910156s12.96875-28.90625 28.910156-28.90625c15.9375 0 28.90625 12.964844 28.90625 28.90625s-12.96875 28.910156-28.90625 28.910156zm0 0"/></svg>