<svg height="512" viewBox="0 0 58 58" width="512" xmlns="http://www.w3.org/2000/svg"><g id="026---IT-Request" fill="none"><path id="Rectangle-path" d="m11 35.519h36v9.963h-36z" fill="#464f5d"/><g fill="#393f4a"><path id="Shape" d="m15 40c-.5522847 0-1-.4477153-1-1v-1c0-.5522847.4477153-1 1-1s1 .4477153 1 1v1c0 .5522847-.4477153 1-1 1z"/><path id="Shape" d="m19 40c-.5522847 0-1-.4477153-1-1v-1c0-.5522847.4477153-1 1-1s1 .4477153 1 1v1c0 .5522847-.4477153 1-1 1z"/><path id="Shape" d="m23 40c-.5522847 0-1-.4477153-1-1v-1c0-.5522847.4477153-1 1-1s1 .4477153 1 1v1c0 .5522847-.4477153 1-1 1z"/><path id="Shape" d="m27 40c-.5522847 0-1-.4477153-1-1v-1c0-.5522847.4477153-1 1-1s1 .4477153 1 1v1c0 .5522847-.4477153 1-1 1z"/><path id="Shape" d="m31 40c-.5522847 0-1-.4477153-1-1v-1c0-.5522847.4477153-1 1-1s1 .4477153 1 1v1c0 .5522847-.4477153 1-1 1z"/><path id="Shape" d="m35 40c-.5522847 0-1-.4477153-1-1v-1c0-.5522847.4477153-1 1-1s1 .4477153 1 1v1c0 .5522847-.4477153 1-1 1z"/><path id="Shape" d="m39 40c-.5522847 0-1-.4477153-1-1v-1c0-.5522847.4477153-1 1-1s1 .4477153 1 1v1c0 .5522847-.4477153 1-1 1z"/><path id="Shape" d="m43 40c-.5522847 0-1-.4477153-1-1v-1c0-.5522847.4477153-1 1-1s1 .4477153 1 1v1c0 .5522847-.4477153 1-1 1z"/></g><rect id="Rectangle-path" fill="#56595e" height="38" rx="4" width="44" x="7"/><path id="Shape" d="m46.18 4.02c-5.3.2-34.52 2.36-35.16 26.17-.031-.19-.02 1.718-.02-25.19 0-.55228475.4477153-1 1-1 36.617 0 34-.01 34.18.02z" fill="#26b99a"/><path id="Shape" d="m47 5v25c0 .5522847-.4477153 1-1 1-36.2 0-34.228.134-34.66-.25-.162422-.1446544-.2745129-.3373108-.32-.55-.01-.01 0-.01 0-.01.64-23.81 29.86-25.97 35.16-26.17h.02c.4656663.09505372.800097.50473138.8.98z" fill="#14a085"/><path id="Shape" d="m56 58h-54c-.66371305.0000445-1.28421426-.3291759-1.65629698-.8787844-.37208272-.5496084-.44727242-1.2480025-.20070302-1.8642156l4.849-9.743c.60787551-1.5191708 2.07972632-2.5149277 3.716-2.514h40.584c1.6355444-.0001097 3.1063953.9955067 3.714 2.514l4.849 9.743c.2464383.6158845.1714675 1.3138866-.2001421 1.863388-.3716096.5495015-.9914989.8789932-1.6548579.879612z" fill="#3b97d3"/><path id="Shape" d="m35 54h-27.277c-.35761825.0007066-.68839235-.1896133-.86750734-.4991438-.17911498-.3095305-.17930283-.6911495-.00049266-1.0008562l2.277-5c.17898507-.3100129.51002916-.5007064.868-.5h25c.5522847 0 1 .4477153 1 1v5c0 .5522847-.4477153 1-1 1z" fill="#3f5c6c"/><path id="Shape" d="m50.277 54h-9.277c-.5522847 0-1-.4477153-1-1v-5c0-.5522847.4477153-1 1-1h7c.3579708-.0007064.6890149.1899871.868.5l2.277 5c.1788102.3097067.1786223.6913257-.0004927 1.0008562-.1791149.3095305-.5098891.4998504-.8675073.4991438z" fill="#3f5c6c"/><path id="Rectangle-path" d="m14.96 13h28.08v10h-28.08z" fill="#95a5a5"/><path id="Shape" d="m26 19h-5c-.5522847 0-1-.4477153-1-1s.4477153-1 1-1h5c.5522847 0 1 .4477153 1 1s-.4477153 1-1 1z" fill="#7f8c8d"/><path id="Shape" d="m37 19h-5c-.5522847 0-1-.4477153-1-1s.4477153-1 1-1h5c.5522847 0 1 .4477153 1 1s-.4477153 1-1 1z" fill="#7f8c8d"/><path id="Shape" d="m7.482 9c-3.00583683-.00116911-5.81342802 1.4998152-7.482 4h8.482l3 5-3 5h-8.482c2.38547412 3.5702506 6.96083017 4.9581215 10.9277727 3.3147885 3.9669425-1.6433331 6.2205234-5.8601377 5.3824488-10.0714092s-4.5343682-7.24400654-8.8282215-7.2433793z" fill="#bdc3c7"/><path id="Shape" d="m50.518 9c3.0058368-.00116911 5.813428 1.4998152 7.482 4h-8.482l-3 5 3 5h8.482c-2.3854741 3.5702506-6.9608302 4.9581215-10.9277727 3.3147885-3.9669425-1.6433331-6.2205234-5.8601377-5.3824488-10.0714092s4.5343682-7.24400654 8.8282215-7.2433793z" fill="#bdc3c7"/></g></svg>