<svg id="Layer_5" enable-background="new 0 0 64 64" height="512" viewBox="0 0 64 64" width="512" xmlns="http://www.w3.org/2000/svg"><path d="m52 12v-10h-26v50h36v-40z" fill="#e6e9ed"/><path d="m58 22v26h-6v-13l-4-3v-10z" fill="#ff826e"/><path d="m62 12h-10v-2-8z" fill="#fcd770"/><path d="m26 10v8h-4-2c-2.21 0-4-1.79-4-4 0-1.1.45-2.1 1.17-2.83.73-.72 1.73-1.17 2.83-1.17z" fill="#aab2bd"/><path d="m22 31v-13h4 18c.82 0 1.59.25 2.23.68 1.07.72 1.77 1.94 1.77 3.32v10l4 3v13 4 6c0 2.21-1.79 4-4 4h-26v-9.5l1.1-.18c1.24-.21 2.38-.8 3.26-1.68l8.02-8.02c.4-.4.62-.94.62-1.5 0-.58-.24-1.12-.62-1.5s-.92-.62-1.5-.62c-.56 0-1.1.22-1.5.62l2-2c.4-.4.62-.94.62-1.5 0-.58-.24-1.12-.62-1.5s-.92-.62-1.5-.62c-.56 0-1.1.22-1.5.62l2-2c.4-.4.62-.94.62-1.5 0-.58-.24-1.12-.62-1.5s-.92-.62-1.5-.62c-.56 0-1.1.22-1.5.62l-2 2c.4-.4.62-.94.62-1.5 0-.58-.24-1.12-.62-1.5s-.92-.62-1.5-.62c-.56 0-1.1.22-1.5.62z" fill="#ffeaa7"/><path d="m22 18v13l-3.59 3.59c-.26.26-.62.41-1 .41-.78 0-1.41-.63-1.41-1.41v-2.59-17c0 2.21 1.79 4 4 4z" fill="#fcd770"/><path d="m22 52.5v9.5h-2c-2.21 0-4-1.79-4-4l1-1-1-1 3-3z" fill="#fcd770"/><path d="m16 56 1 1-1 1-2 2-12-12 3-3 1 1z" fill="#ccd1d9"/><path d="m33.38 34.62c.38.38.62.92.62 1.5 0 .56-.22 1.1-.62 1.5l-2 2c.4-.4.94-.62 1.5-.62.58 0 1.12.24 1.5.62s.62.92.62 1.5c0 .56-.22 1.1-.62 1.5l-8.02 8.02c-.88.88-2.02 1.47-3.26 1.68l-1.1.18-3 .5-3 3-10-10 2-2 .68-4.1c.21-1.24.8-2.38 1.68-3.26l5.64-5.64v2.59c0 .78.63 1.41 1.41 1.41.38 0 .74-.15 1-.41l3.59-3.59 2.38-2.38c.4-.4.94-.62 1.5-.62.58 0 1.12.24 1.5.62s.62.92.62 1.5c0 .56-.22 1.1-.62 1.5l2-2c.4-.4.94-.62 1.5-.62.58 0 1.12.24 1.5.62s.62.92.62 1.5c0 .56-.22 1.1-.62 1.5l-2 2c.4-.4.94-.62 1.5-.62.58 0 1.12.24 1.5.62z" fill="#f0d0b4"/><path d="m47 55v2c0 .55-.45 1-1 1h-2c-.55 0-1-.45-1-1v-2c0-.55.45-1 1-1h2c.55 0 1 .45 1 1z" fill="#b4dd7f"/><path d="m40 55v2c0 .55-.45 1-1 1h-2c-.55 0-1-.45-1-1v-2c0-.55.45-1 1-1h2c.55 0 1 .45 1 1z" fill="#b4dd7f"/><path d="m63 11.586-10.586-10.586h-27.414v8h-5c-2.757 0-5 2.243-5 5v16.586l-5.348 5.348c-1.037 1.037-1.713 2.351-1.955 3.799l-.631 3.787-1.066 1.066-1-1-4.414 4.414 13.414 13.414 1.42-1.42c.773 1.766 2.532 3.006 4.58 3.006h28c2.757 0 5-2.243 5-5v-5h10zm-10-7.172 6.586 6.586h-6.586zm-33 6.586h5v6h-5c-1.654 0-3-1.346-3-3s1.346-3 3-3zm-2.293 22.879c-.237.239-.707.045-.707-.293v-15.612c.838.635 1.87 1.026 3 1.026h1v11.586zm-8.773 10.601.736-4.419c.173-1.034.655-1.973 1.396-2.714l3.934-3.933v.172c0 1.331 1.083 2.414 2.414 2.414.636 0 1.258-.258 1.707-.707l5.965-5.965c.209-.208.498-.328.793-.328.618 0 1.121.503 1.121 1.121 0 .3-.116.581-.328.793l-8.379 8.379 1.414 1.414 8.379-8.379 2-2c.209-.208.498-.328.793-.328.618 0 1.121.503 1.121 1.121 0 .3-.116.581-.328.793l-2 2-8.379 8.379 1.414 1.414 8.379-8.379c.209-.209.498-.328.793-.328.618 0 1.121.503 1.121 1.121 0 .295-.119.584-.328.793l-2 2-6.379 6.379 1.414 1.414 6.379-6.379c.209-.209.498-.328.793-.328.618 0 1.121.503 1.121 1.121 0 .295-.119.584-.328.793l-8.02 8.02c-.741.741-1.68 1.224-2.713 1.396l-4.42.736-2.519 2.52-8.586-8.586zm-5.52 3.52 1.586-1.586 10.586 10.586-1.586 1.586zm13.624 10.376 1.376-1.376-1-1 2.066-2.066 1.52-.253v7.319h-1c-1.526 0-2.775-1.149-2.962-2.624zm33.962-.376c0 1.654-1.346 3-3 3h-25v-7.653l.269-.045c1.447-.242 2.761-.918 3.798-1.955l8.02-8.02c.58-.58.913-1.384.913-2.206 0-1.273-.769-2.368-1.865-2.853.547-.576.865-1.35.865-2.147 0-1.273-.769-2.368-1.865-2.852.555-.583.865-1.34.865-2.148 0-1.721-1.4-3.121-3.121-3.121-.796 0-1.571.318-2.147.865-.485-1.096-1.58-1.865-2.853-1.865-.822 0-1.626.333-2.207.914l-.672.672v-9.586h21c1.654 0 3 1.346 3 3v10.5l4 3zm-2-26.5v-8.5h8v24h-4v-12.5zm4 19.5v-2h6v-28h-10.101c-.465-2.279-2.484-4-4.899-4h-17v-14h24v10h10v38z"/><path d="m45 53c-1.103 0-2 .897-2 2v2c0 1.103.897 2 2 2h2c1.103 0 2-.897 2-2v-2c0-1.103-.897-2-2-2zm2 4h-2l-.002-2h.002 2z"/><path d="m39 53h-2c-1.103 0-2 .897-2 2v2c0 1.103.897 2 2 2h2c1.103 0 2-.897 2-2v-2c0-1.103-.897-2-2-2zm0 4h-2l-.002-2h.002 2z"/><path d="m29 5h20v2h-20z"/><path d="m29 9h20v2h-20z"/><path d="m29 13h20v2h-20z"/><path d="m57 17h2v2h-2z"/><path d="m53 17h2v2h-2z"/><path d="m49 17h2v2h-2z"/><path d="m25 21h2v2h-2z"/><path d="m29 21h2v2h-2z"/><path d="m33 21h2v2h-2z"/></svg>