<?xml version="1.0"?>
<svg xmlns="http://www.w3.org/2000/svg" id="Layer_5" enable-background="new 0 0 64 64" height="512px" viewBox="0 0 64 64" width="512px" class=""><g><path d="m63 24c0-2.206-1.794-4-4-4h-.414l-1.586 1.586v-8l-12.586-12.586h-37.414v16.459l-6 5.077v2.464h2v14h4v24h50v-23.586l3-3c.645-.646 1-1.503 1-2.414s-.355-1.769-1-2.414l-.586-.586.586-.586v-.414c0-.776-.132-1.521-.367-2.219l3.367-3.367zm-5.016 5.602-4.984 4.984-4.586-4.586 4.984-4.984c2.44.193 4.393 2.145 4.586 4.586zm-29.442 21.354 3.502 3.502-4.669 1.168zm5.458 2.63-4.586-4.586 14.586-14.586 4.586 4.586zm16-16-4.586-4.586 1.586-1.586 4.586 4.586zm-7-26.586h-4v-4h4zm-16 0v-4h4v4zm6-4h4v4h-4zm12-2.586 8.586 8.586h-8.586zm-30 8.896 11.452 9.69h-22.904zm-10 11.69h20v12h-4v-8h-12v8h-4zm14 12h-8v-6h8zm36 24h-46v-22h18v-14h2v-2.464l-14-11.846-6 5.077v-12.767h34v2h-18v8h18v2h12v8.295c-.634-.19-1.305-.295-2-.295h-.414l-3.586 3.586v-1.586h-18v2h17.586l-2 2h-15.586v2h13.586l-2 2h-11.586v2h9.586l-13.489 13.488-2.472 9.886 9.886-2.471 20.489-20.489v3.172l-3.086 3.086c-.581.581-.914 1.385-.914 2.207 0 1.721 1.4 3.121 3.121 3.121h.879zm0-16h-.879c-.618 0-1.121-.503-1.121-1.121 0-.295.12-.584.328-.793l1.672-1.672zm3.585-12c.268.268.415.622.415 1s-.147.732-.414 1l-1.586 1.586v-3.172l1-1zm.087-7.086c-.441-.61-.976-1.145-1.586-1.586l2.292-2.292c.8.153 1.432.785 1.586 1.586z" data-original="#000000" class="active-path" data-old_color="#000000" fill="#FFFFFF"/><path d="m22.302 56.4c-.418-.558-1.049-1.4-2.299-1.4s-1.881.843-2.299 1.4c-.378.504-.489.6-.698.6-.211 0-.323-.096-.704-.601-.419-.557-1.052-1.399-2.302-1.399-1.251 0-1.882.843-2.3 1.4-.378.504-.49.6-.7.6v2c1.251 0 1.882-.843 2.3-1.4.378-.504.49-.6.7-.6.211 0 .323.096.704.601.419.557 1.051 1.399 2.301 1.399s1.881-.843 2.299-1.4c.378-.504.489-.6.699-.6.209 0 .32.096.698.6.418.557 1.049 1.4 2.299 1.4v-2c-.209 0-.32-.096-.698-.6z" data-original="#000000" class="active-path" data-old_color="#000000" fill="#FFFFFF"/><path d="m15 51h2v2h-2z" data-original="#000000" class="active-path" data-old_color="#000000" fill="#FFFFFF"/><path d="m19 51h2v2h-2z" data-original="#000000" class="active-path" data-old_color="#000000" fill="#FFFFFF"/><path d="m11 51h2v2h-2z" data-original="#000000" class="active-path" data-old_color="#000000" fill="#FFFFFF"/><path d="m11 47h10v2h-10z" data-original="#000000" class="active-path" data-old_color="#000000" fill="#FFFFFF"/><path d="m11 43h10v2h-10z" data-original="#000000" class="active-path" data-old_color="#000000" fill="#FFFFFF"/><path d="m31 17h18v2h-18z" data-original="#000000" class="active-path" data-old_color="#000000" fill="#FFFFFF"/><path d="m31 21h18v2h-18z" data-original="#000000" class="active-path" data-old_color="#000000" fill="#FFFFFF"/><path d="m51 57h2v2h-2z" data-original="#000000" class="active-path" data-old_color="#000000" fill="#FFFFFF"/><path d="m43 57h2v2h-2z" data-original="#000000" class="active-path" data-old_color="#000000" fill="#FFFFFF"/><path d="m47 57h2v2h-2z" data-original="#000000" class="active-path" data-old_color="#000000" fill="#FFFFFF"/></g> </svg>
